<svg enable-background="new 0 0 256 256" viewBox="0 0 256 256" xmlns="http://www.w3.org/2000/svg"><circle cx="128" cy="128" fill="#f1c48b" r="104.245"/><path d="m185.359 70.333h13.974v23.456h-13.974z" fill="#fff"/><path d="m185.359 103.679h13.974v23.456h-13.974z" fill="#a3d0f1"/><path d="m185.359 137.026h13.974v23.456h-13.974z" fill="#7bacf1"/><path d="m178.636 202.333h-102.068c-3.713 0-6.723-3.01-6.723-6.723v-135.22c0-3.713 3.01-6.723 6.723-6.723h102.068c3.713 0 6.723 3.01 6.723 6.723v135.22c0 3.713-3.01 6.723-6.723 6.723z" fill="#fd919e"/><path d="m178.636 53.667h-14.818c3.713 0 6.723 3.01 6.723 6.723v135.22c0 3.713-3.01 6.723-6.723 6.723h14.818c3.713 0 6.723-3.01 6.723-6.723v-135.22c0-3.713-3.01-6.723-6.723-6.723z" fill="#e8677d"/><path d="m178.636 205.333h-102.068c-5.361 0-9.723-4.361-9.723-9.723v-135.22c0-5.361 4.362-9.723 9.723-9.723h102.067c5.361 0 9.724 4.361 9.724 9.723v135.22c0 5.362-4.362 9.723-9.723 9.723zm-102.068-148.666c-2.053 0-3.723 1.67-3.723 3.723v135.22c0 2.053 1.67 3.723 3.723 3.723h102.067c2.053 0 3.724-1.67 3.724-3.723v-135.22c0-2.053-1.671-3.723-3.724-3.723z" fill="#4c4372"/><path d="m79.419 94.212h-19.147c-3.11 0-5.631-2.521-5.631-5.631 0-3.11 2.521-5.631 5.631-5.631h19.146c3.11 0 5.631 2.521 5.631 5.631.001 3.11-2.52 5.631-5.63 5.631z" fill="#7bacf1"/><path d="m79.419 133.631h-19.147c-3.11 0-5.631-2.521-5.631-5.631 0-3.11 2.521-5.631 5.631-5.631h19.146c3.11 0 5.631 2.521 5.631 5.631.001 3.11-2.52 5.631-5.63 5.631z" fill="#7bacf1"/><path d="m79.419 173.051h-19.147c-3.11 0-5.631-2.521-5.631-5.631 0-3.11 2.521-5.631 5.631-5.631h19.146c3.11 0 5.631 2.521 5.631 5.631.001 3.109-2.52 5.631-5.63 5.631z" fill="#7bacf1"/><g fill="#4c4372"><path d="m79.419 97.212h-19.147c-4.759 0-8.631-3.872-8.631-8.631 0-4.76 3.872-8.632 8.631-8.632h19.146c4.759 0 8.631 3.872 8.631 8.632.001 4.759-3.871 8.631-8.63 8.631zm-19.147-11.263c-1.451 0-2.631 1.181-2.631 2.632 0 1.45 1.18 2.631 2.631 2.631h19.146c1.451 0 2.631-1.181 2.631-2.631 0-1.451-1.18-2.632-2.631-2.632z"/><path d="m79.419 136.631h-19.147c-4.759 0-8.631-3.872-8.631-8.631s3.872-8.631 8.631-8.631h19.146c4.759 0 8.631 3.872 8.631 8.631s-3.871 8.631-8.63 8.631zm-19.147-11.262c-1.451 0-2.631 1.181-2.631 2.631s1.18 2.631 2.631 2.631h19.146c1.451 0 2.631-1.181 2.631-2.631s-1.18-2.631-2.631-2.631z"/><path d="m79.419 176.051h-19.147c-4.759 0-8.631-3.872-8.631-8.632 0-4.759 3.872-8.631 8.631-8.631h19.146c4.759 0 8.631 3.872 8.631 8.631.001 4.76-3.871 8.632-8.63 8.632zm-19.147-11.263c-1.451 0-2.631 1.181-2.631 2.631 0 1.451 1.18 2.632 2.631 2.632h19.146c1.451 0 2.631-1.181 2.631-2.632 0-1.45-1.18-2.631-2.631-2.631z"/><path d="m199.333 96.789h-13.974c-1.657 0-3-1.343-3-3v-23.456c0-1.657 1.343-3 3-3h13.974c1.657 0 3 1.343 3 3v23.456c0 1.657-1.343 3-3 3zm-10.974-6h7.974v-17.456h-7.974z"/><path d="m199.333 130.135h-13.974c-1.657 0-3-1.343-3-3v-23.455c0-1.657 1.343-3 3-3h13.974c1.657 0 3 1.343 3 3v23.455c0 1.657-1.343 3-3 3zm-10.974-6h7.974v-17.455h-7.974z"/><path d="m199.333 163.481h-13.974c-1.657 0-3-1.343-3-3v-23.456c0-1.657 1.343-3 3-3h13.974c1.657 0 3 1.343 3 3v23.456c0 1.658-1.343 3-3 3zm-10.974-6h7.974v-17.456h-7.974z"/></g><path d="m162.634 169.572h-66.5v-12.75c0-12.841 10.409-23.25 23.25-23.25h20c12.841 0 23.25 10.409 23.25 23.25z" fill="#d4e7f8"/><path d="m162.635 172.571h-66.5c-1.657 0-3-1.343-3-3v-12.75c0-14.475 11.776-26.25 26.25-26.25h20c14.475 0 26.25 11.775 26.25 26.25v12.75c0 1.658-1.343 3-3 3zm-63.501-6h60.5v-9.75c0-11.166-9.084-20.25-20.25-20.25h-20c-11.166 0-20.25 9.084-20.25 20.25z" fill="#4c4372"/><path d="m129.384 141.095c-3.935 0-7.125-3.19-7.125-7.125v-13.125h14.25v13.125c0 3.935-3.189 7.125-7.125 7.125z" fill="#fff"/><path d="m129.385 144.095c-5.583 0-10.125-4.542-10.125-10.125v-13.125c0-1.657 1.343-3 3-3h14.25c1.657 0 3 1.343 3 3v13.125c0 5.583-4.542 10.125-10.125 10.125zm-4.126-20.25v10.125c0 2.274 1.851 4.125 4.125 4.125s4.125-1.851 4.125-4.125v-10.125z" fill="#4c4372"/><path d="m129.384 129.762c-9.021 0-16.333-7.313-16.333-16.333v-10.667c0-9.021 7.313-16.333 16.333-16.333 9.021 0 16.333 7.313 16.333 16.333v10.667c.001 9.02-7.312 16.333-16.333 16.333z" fill="#fff"/><path d="m129.385 132.762c-10.661 0-19.333-8.673-19.333-19.333v-10.667c0-10.66 8.673-19.333 19.333-19.333s19.333 8.673 19.333 19.333v10.667c0 10.66-8.673 19.333-19.333 19.333zm0-43.333c-7.352 0-13.333 5.981-13.333 13.333v10.667c0 7.352 5.981 13.333 13.333 13.333s13.333-5.981 13.333-13.333v-10.667c0-7.352-5.982-13.333-13.333-13.333z" fill="#4c4372"/></svg>